<svg xmlns="http://www.w3.org/2000/svg" xmlns:xlink="http://www.w3.org/1999/xlink" width="500" zoomAndPan="magnify" viewBox="0 0 375 374.999991" height="500" preserveAspectRatio="xMidYMid meet" version="1.0"><defs><clipPath id="137c4f6d44"><path d="M 187 198 L 362 198 L 362 373 L 187 373 Z M 187 198 " clip-rule="nonzero"/></clipPath><clipPath id="5e935216af"><path d="M 230.375 433.699219 L 125.152344 328.472656 L 316.773438 136.851562 L 421.996094 242.078125 Z M 230.375 433.699219 " clip-rule="nonzero"/></clipPath><clipPath id="5d327e45cc"><path d="M 125.582031 328.90625 L 230.808594 434.132812 L 422.429688 242.511719 L 317.203125 137.285156 Z M 125.582031 328.90625 " clip-rule="nonzero"/></clipPath><clipPath id="56a1435efa"><path d="M 22.320312 0.222656 L 169.5625 0.222656 L 169.5625 369.898438 L 22.320312 369.898438 Z M 22.320312 0.222656 " clip-rule="nonzero"/></clipPath></defs><g clip-path="url(#137c4f6d44)"><g clip-path="url(#5e935216af)"><g clip-path="url(#5d327e45cc)"><path fill="#149d80" d="M 318.253906 329.5 C 366.21875 281.535156 361.351562 198.90625 361.351562 198.90625 C 361.351562 198.90625 277.710938 193.023438 229.742188 240.992188 C 181.777344 288.957031 187.65625 372.601562 187.65625 372.601562 C 187.65625 372.601562 270.285156 377.46875 318.253906 329.5 " fill-opacity="1" fill-rule="nonzero"/></g></g></g><g clip-path="url(#56a1435efa)"><path fill="#149d80" d="M 22.320312 0.078125 L 22.320312 221.863281 C 22.320312 303.582031 88.5625 369.824219 170.28125 369.824219 L 170.28125 148.039062 C 170.28125 66.320312 104.035156 0.078125 22.320312 0.078125 Z M 22.320312 0.078125 " fill-opacity="1" fill-rule="nonzero"/></g></svg>